<svg width="32" height="32" viewBox="0 0 32 52" fill="none" xmlns="http://www.w3.org/2000/svg">
  <path
    d="M-0.000732422 18.7618H9.19214H-0.000732422ZM9.19214 14.1693H-0.000732422V23.3544H9.19214V14.1693ZM-0.000732422 47.1031H9.19214H-0.000732422ZM9.19214 42.508H-0.000732422V51.693H9.19214V42.508ZM14.2098 47.1031H23.4027H14.2098ZM23.4053 42.508H14.2125V51.693H23.4053V42.508ZM0.229752 32.9312H8.9643H0.229752ZM8.9643 28.5689H0.229752V37.296H8.9643V28.5689ZM14.2098 4.59252H23.4027H14.2098ZM23.4053 0H14.2125V9.18505H23.4053V0ZM14.2098 32.9312H23.4027H14.2098ZM23.4053 28.3386H14.2125V37.5237H23.4053V28.3386ZM28.4203 32.9312H37.6132H28.4203ZM37.6159 28.3386H28.423V37.5237H37.6159V28.3386ZM16.5809 35.0355L6.73629 45.2026L16.5809 35.0355ZM17.328 35.7264L15.8338 34.3447L5.9892 44.5117L7.48338 45.8935L17.328 35.7264ZM21.5164 44.6414L31.3345 34.4479L21.5164 44.6414ZM32.0816 35.1361L30.5821 33.757L20.764 43.9506L22.2635 45.3297L32.0816 35.1361ZM14.2098 18.7618H23.4027H14.2098ZM23.4053 14.1693H14.2125V23.3544H23.4053V14.1693ZM15.6298 21.8562L8.66229 29.0771L15.6298 21.8562ZM16.3848 22.5364L14.8748 21.1706L7.19461 29.011L8.70468 30.3768L16.3848 22.5364ZM16.6074 6.52747L6.86875 16.7978L16.6074 6.52747ZM17.3624 7.21039L15.8523 5.84455L6.11637 16.1122L7.62644 17.4781L17.3624 7.20775V7.21039Z"
    fill="black" />
</svg>